<?xml version="1.0" encoding="utf-8"?>
<!-- Generator: Adobe Illustrator 19.1.0, SVG Export Plug-In . SVG Version: 6.00 Build 0)  -->
<svg version="1.1" xmlns="http://www.w3.org/2000/svg" xmlns:xlink="http://www.w3.org/1999/xlink" x="0px" y="0px"
	 viewBox="0 0 40 40" style="enable-background:new 0 0 40 40;" xml:space="preserve">
<style type="text/css">
	.st0{display:none;}
	.st1{display:inline;fill:none;stroke:#FFFFFF;stroke-miterlimit:10;}
	.st2{display:inline;fill:#FFFFFF;}
	.st3{display:inline;fill:none;stroke:#000000;stroke-miterlimit:10;}
	.st4{display:inline;}
	.st5{fill:none;stroke:#1F1A3A;stroke-miterlimit:10;}
	.st6{fill:#1F1A3A;}
	.st7{display:inline;fill:#1F1A3A;}
	.st8{display:inline;fill:none;stroke:#1F1A3A;stroke-miterlimit:10;}
	.st9{fill:none;stroke:#000000;stroke-width:2;stroke-miterlimit:10;}
	.st10{display:inline;fill:none;stroke:#FFFFFF;stroke-width:2;stroke-miterlimit:10;}
	.st11{fill:#FFFFFF;}
	.st12{display:inline;fill:none;stroke:#1F1A3A;stroke-width:2;stroke-miterlimit:10;}
	.st13{fill:#5D5D5D;}
	.st14{display:inline;fill:#333033;}
	.st15{fill:none;stroke:#000000;stroke-miterlimit:10;}
	.st16{fill:none;stroke:#000000;stroke-linejoin:bevel;stroke-miterlimit:10;}
	.st17{fill:none;stroke:#FFFFFF;stroke-miterlimit:10;}
	.st18{fill:none;stroke:#FFFFFF;stroke-linejoin:bevel;stroke-miterlimit:10;}
</style>
<g id="Twitter" class="st0">
	<rect x="103" y="42" class="st1" width="34" height="34"/>
	<path class="st2" d="M128.5,53.7c-0.6,0.3-1.3,0.5-2,0.6c0.7-0.4,1.3-1.1,1.5-1.9c-0.7,0.4-1.4,0.7-2.2,0.8
		c-0.6-0.7-1.5-1.1-2.6-1.1c-1.9,0-3.5,1.6-3.5,3.5c0,0.3,0,0.5,0.1,0.8c-2.9-0.1-5.5-1.5-7.2-3.7c-0.3,0.5-0.5,1.1-0.5,1.8
		c0,1.2,0.6,2.3,1.6,2.9c-0.6,0-1.1-0.2-1.6-0.4v0c0,1.7,1.2,3.1,2.8,3.4c-0.3,0.1-0.6,0.1-0.9,0.1c-0.2,0-0.4,0-0.7-0.1
		c0.4,1.4,1.7,2.4,3.3,2.4c-1.2,0.9-2.7,1.5-4.3,1.5c-0.3,0-0.6,0-0.8,0c1.5,1,3.4,1.6,5.4,1.6c6.4,0,9.9-5.3,9.9-9.9
		c0-0.2,0-0.3,0-0.5C127.5,55,128.1,54.4,128.5,53.7"/>
	<rect x="103" y="3" class="st3" width="34" height="34"/>
	<path class="st4" d="M128.5,14.7c-0.6,0.3-1.3,0.5-2,0.6c0.7-0.4,1.3-1.1,1.5-1.9c-0.7,0.4-1.4,0.7-2.2,0.8
		c-0.6-0.7-1.5-1.1-2.6-1.1c-1.9,0-3.5,1.6-3.5,3.5c0,0.3,0,0.5,0.1,0.8c-2.9-0.1-5.5-1.5-7.2-3.7c-0.3,0.5-0.5,1.1-0.5,1.8
		c0,1.2,0.6,2.3,1.6,2.9c-0.6,0-1.1-0.2-1.6-0.4v0c0,1.7,1.2,3.1,2.8,3.4c-0.3,0.1-0.6,0.1-0.9,0.1c-0.2,0-0.4,0-0.7-0.1
		c0.4,1.4,1.7,2.4,3.3,2.4c-1.2,0.9-2.7,1.5-4.3,1.5c-0.3,0-0.6,0-0.8,0c1.5,1,3.4,1.6,5.4,1.6c6.4,0,9.9-5.3,9.9-9.9
		c0-0.2,0-0.3,0-0.5C127.5,16,128.1,15.4,128.5,14.7"/>
	<path class="st4" d="M64,3v34h34V3H64z M88.5,17.3c0,0.1,0,0.3,0,0.5c0,4.6-3.5,9.9-9.9,9.9c-2,0-3.8-0.6-5.4-1.6
		c0.3,0,0.6,0,0.8,0c1.6,0,3.1-0.6,4.3-1.5c-1.5,0-2.8-1-3.3-2.4c0.2,0,0.4,0.1,0.7,0.1c0.3,0,0.2,0,0.5-0.1
		c-1.6-0.3-3.2-1.7-3.2-3.4v0c1,0.3,1.4,0.4,2,0.4c-0.9-0.6-1.3-1.7-1.3-2.9c0-0.6,0.3-1.2,0.6-1.8c1.7,2.1,4.4,3.5,7.3,3.7
		c-0.1-0.3-0.1-0.5-0.1-0.8c0-1.9,1.6-3.5,3.5-3.5c1,0,1.9,0.4,2.6,1.1c0.8-0.2,1.5-0.4,2.2-0.8c-0.3,0.8-0.8,1.5-1.5,1.9
		c0.7-0.1,1.4-0.3,2-0.6C89.8,16.2,89.2,16.8,88.5,17.3z"/>
	<g class="st4">
		<rect x="103.8" y="-34.8" class="st5" width="34" height="34"/>
		<path class="st6" d="M129.4-23.1c-0.6,0.3-1.3,0.5-2,0.6c0.7-0.4,1.3-1.1,1.5-1.9c-0.7,0.4-1.4,0.7-2.2,0.8
			c-0.6-0.7-1.5-1.1-2.6-1.1c-1.9,0-3.5,1.6-3.5,3.5c0,0.3,0,0.5,0.1,0.8c-2.9-0.1-5.5-1.5-7.2-3.7c-0.3,0.5-0.5,1.1-0.5,1.8
			c0,1.2,0.6,2.3,1.6,2.9c-0.6,0-1.1-0.2-1.6-0.4v0c0,1.7,1.2,3.1,2.8,3.4c-0.3,0.1-0.6,0.1-0.9,0.1c-0.2,0-0.4,0-0.7-0.1
			c0.4,1.4,1.7,2.4,3.3,2.4c-1.2,0.9-2.7,1.5-4.3,1.5c-0.3,0-0.6,0-0.8,0c1.5,1,3.4,1.6,5.4,1.6c6.4,0,9.9-5.3,9.9-9.9
			c0-0.2,0-0.3,0-0.5C128.3-21.8,128.9-22.4,129.4-23.1"/>
	</g>
	<path class="st7" d="M64-35v34h34v-34H64z M88.8-21.3c0,0.1,0,0.3,0,0.5c0,4.6-3.5,9.9-9.9,9.9c-2,0-3.8-0.6-5.4-1.6
		c0.3,0,0.6,0,0.8,0c1.6,0,3.1-0.6,4.3-1.5c-1.5,0-2.8-1-3.3-2.4c0.2,0,0.4,0.1,0.7,0.1c0.3,0,0,0,0.3-0.1c-1.6-0.3-3.4-1.7-3.4-3.4
		v0c1,0.3,1.6,0.4,2.2,0.4c-0.9-0.6-1.3-1.7-1.3-2.9c0-0.6,0.3-1.2,0.6-1.8c1.7,2.1,4.4,3.5,7.3,3.7c-0.1-0.3-0.1-0.5-0.1-0.8
		c0-1.9,1.6-3.5,3.5-3.5c1,0,1.9,0.4,2.6,1.1c0.8-0.2,1.5-0.4,2.2-0.8c-0.3,0.8-0.8,1.5-1.5,1.9c0.7-0.1,1.4-0.3,2-0.6
		C90.1-22.4,89.5-21.8,88.8-21.3z"/>
	<path class="st2" d="M64,42v34h34V42H64z M88.1,55.6c0,0.1,0,0.3,0,0.5c0,4.6-3.5,9.9-9.9,9.9c-2,0-3.8-0.6-5.4-1.6
		c0.3,0,0.6,0,0.8,0c1.6,0,3.1-0.6,4.3-1.5c-1.5,0-2.8-1-3.3-2.4c0.2,0,0.4,0.1,0.7,0.1c0.3,0,0.4,0,0.7-0.1c-1.6-0.3-3-1.7-3-3.4v0
		c1,0.3,1.3,0.4,1.8,0.4c-0.9-0.6-1.4-1.7-1.4-2.9c0-0.6,0.2-1.2,0.5-1.8c1.7,2.1,4.3,3.5,7.2,3.7c-0.1-0.3-0.1-0.5-0.1-0.8
		c0-1.9,1.6-3.5,3.5-3.5c1,0,1.9,0.4,2.6,1.1c0.8-0.2,1.5-0.4,2.2-0.8c-0.3,0.8-0.8,1.5-1.5,1.9c0.7-0.1,1.4-0.3,2-0.6
		C89.4,54.5,88.8,55.1,88.1,55.6z"/>
</g>
<g id="FB" class="st0">
	<rect x="89.2" y="3" class="st3" width="34" height="34"/>
	<path class="st4" d="M102.1,17.1h1.8v-1.7c0-0.8,0-1.9,0.6-2.6c0.6-0.8,1.4-1.3,2.7-1.3c2.2,0,3.2,0.3,3.2,0.3l-0.4,2.6
		c0,0-0.7-0.2-1.4-0.2c-0.7,0-1.3,0.2-1.3,0.9v2h2.8l-0.2,2.5h-2.6v8.8h-3.3v-8.8h-1.8V17.1z"/>
	<rect x="89.2" y="41" class="st1" width="34" height="34"/>
	<path class="st2" d="M102.1,55.1h1.8v-1.7c0-0.8,0-1.9,0.6-2.6c0.6-0.8,1.4-1.3,2.7-1.3c2.2,0,3.2,0.3,3.2,0.3l-0.4,2.6
		c0,0-0.7-0.2-1.4-0.2c-0.7,0-1.3,0.2-1.3,0.9v2h2.8l-0.2,2.5h-2.6v8.8h-3.3v-8.8h-1.8V55.1z"/>
	<path class="st4" d="M50,3v34h35V3H50z M71.8,17l-0.2,3H68v9h-3v-9h-2v-3h2v-1.6c0-0.8,0.4-1.9,0.9-2.6c0.6-0.8,1.5-1.3,2.9-1.3
		c2.2,0,3.2,0.3,3.2,0.3l-0.4,2.6c0,0-1.2-0.2-1.9-0.2c-0.7,0-1.8,0.2-1.8,0.9V17H71.8z"/>
	<rect x="91.3" y="-33.8" class="st8" width="34" height="34"/>
	<path class="st7" d="M104.2-19.7h1.8v-1.7c0-0.8,0-1.9,0.6-2.6c0.6-0.8,1.4-1.3,2.7-1.3c2.2,0,3.2,0.3,3.2,0.3l-0.4,2.6
		c0,0-0.7-0.2-1.4-0.2c-0.7,0-1.3,0.2-1.3,0.9v2h2.8l-0.2,2.5h-2.6v8.8H106v-8.8h-1.8V-19.7z"/>
	<path class="st7" d="M50-35v34h35v-34H50z M71.7-21l-0.2,3H68v9h-3v-9h-2v-3h2v-1.2c0-0.8,0.3-1.9,0.9-2.6c0.6-0.8,1.5-1.3,2.9-1.3
		c2.2,0,3.2,0.3,3.2,0.3l-0.4,2.6c0,0-1.2-0.2-1.8-0.2c-0.7,0-1.7,0.2-1.7,0.9v1.5H71.7z"/>
	<path class="st2" d="M50,41v34h35V41H50z M71.6,55l-0.2,3H68v9h-3v-9h-2v-3h2v-2.1c0-0.8,0.3-1.9,0.8-2.6c0.6-0.8,1.5-1.3,2.8-1.3
		c2.2,0,3.2,0.3,3.2,0.3l-0.4,2.6c0,0-1.1-0.2-1.8-0.2c-0.7,0-1.7,0.2-1.7,0.9V55H71.6z"/>
</g>
<g id="LinkedIn" class="st0">
	<rect x="56.9" y="3.5" class="st3" width="34" height="34"/>
	<path class="st4" d="M69.1,27.6h-3.3V17h3.3V27.6z M67.4,15.7L67.4,15.7c-1.2,0-2-0.8-2-1.8c0-1,0.8-1.8,2-1.8c1.2,0,2,0.8,2,1.8
		C69.4,14.9,68.6,15.7,67.4,15.7z M82.4,27.6h-3.8v-5.5c0-1.4-0.6-2.4-1.9-2.4c-1,0-1.5,0.7-1.8,1.3c-0.1,0.2-0.1,0.5-0.1,0.9v5.7
		h-3.7c0,0,0-9.7,0-10.6h3.7v1.7c0.2-0.7,1.4-1.8,3.3-1.8c2.4,0,4.2,1.5,4.2,4.8V27.6z"/>
	<path class="st4" d="M94,4v34h34V4H94z M107,28h-4V17h4V28z M104.8,16L104.8,16c-1.2,0-2-1.2-2-2.2c0-1,0.8-2,2-2
		c1.2,0,2,1.1,2,2.1C106.8,14.9,106,16,104.8,16z M120,28h-4v-6.3c0-1.4-0.6-2.4-1.9-2.4c-1,0-1.7,0.7-1.9,1.3
		c-0.1,0.2-0.2,0.5-0.2,0.9V28h-3.5c0,0,0-10,0-11h3.5v1.2c0-0.7,1.7-1.8,3.6-1.8c2.4,0,4.4,1.5,4.4,4.8V28z"/>
	<rect x="56.9" y="-35" class="st8" width="34" height="34"/>
	<path class="st7" d="M69.1-10.9h-3.3v-10.6h3.3V-10.9z M67.4-22.8L67.4-22.8c-1.2,0-2-0.8-2-1.8c0-1,0.8-1.8,2-1.8
		c1.2,0,2,0.8,2,1.8C69.4-23.6,68.6-22.8,67.4-22.8z M82.4-10.9h-3.8v-5.5c0-1.4-0.6-2.4-1.9-2.4c-1,0-1.5,0.7-1.8,1.3
		c-0.1,0.2-0.1,0.5-0.1,0.9v5.7h-3.7c0,0,0-9.7,0-10.6h3.7v1.7c0.2-0.7,1.4-1.8,3.3-1.8c2.4,0,4.2,1.5,4.2,4.8V-10.9z"/>
	<path class="st7" d="M95-35v34h34v-34H95z M108-11h-4v-11h4V-11z M105.8-23L105.8-23c-1.2,0-2-1.1-2-2.1c0-1,0.8-2,2-2
		c1.2,0,2,1,2,2.1C107.8-24,107-23,105.8-23z M121-11h-4v-6.2c0-1.4-0.6-2.4-1.9-2.4c-1,0-1.7,0.7-1.9,1.3c-0.1,0.2-0.2,0.5-0.2,0.9
		v6.4h-3.5c0,0,0-10,0-11h3.5v1.4c0-0.7,1.7-1.8,3.6-1.8c2.4,0,4.4,1.5,4.4,4.8V-11z"/>
	<rect x="56.9" y="43" class="st1" width="34" height="34"/>
	<path class="st2" d="M69.1,67.1h-3.3V56.5h3.3V67.1z M67.4,55.2L67.4,55.2c-1.2,0-2-0.8-2-1.8c0-1,0.8-1.8,2-1.8c1.2,0,2,0.8,2,1.8
		C69.4,54.4,68.6,55.2,67.4,55.2z M82.4,67.1h-3.8v-5.5c0-1.4-0.6-2.4-1.9-2.4c-1,0-1.5,0.7-1.8,1.3c-0.1,0.2-0.1,0.5-0.1,0.9v5.7
		h-3.7c0,0,0-9.7,0-10.6h3.7v1.7c0.2-0.7,1.4-1.8,3.3-1.8c2.4,0,4.2,1.5,4.2,4.8V67.1z"/>
	<path class="st2" d="M95,45v34h34V45H95z M108,69h-4V58h4V69z M106.3,57L106.3,57c-1.2,0-2-1.4-2-2.4c0-1,0.8-2.1,2-2.1
		c1.2,0,2,1.2,2,2.3C108.3,55.7,107.5,57,106.3,57z M121,69h-4v-6.7c0-1.4-0.3-2.4-1.6-2.4c-1,0-1.8,0.7-2,1.3
		c-0.1,0.2-0.3,0.5-0.3,0.9v7h-3c0,0,0-10,0-11h3v0.8c0-0.7,1.7-1.8,3.6-1.8c2.4,0,4.4,1.5,4.4,4.8V69z"/>
</g>
<g id="Instagram" class="st0">
	<rect x="94.5" y="3.5" class="st4" width="34" height="34"/>
	<rect x="56.9" y="-35" class="st8" width="34" height="34"/>
	<rect x="56.9" y="43" class="st1" width="34" height="34"/>
	<rect x="94.5" y="-35" class="st7" width="34" height="34"/>
	<rect x="94.5" y="43" class="st2" width="34" height="34"/>
	<rect x="56.9" y="3" class="st3" width="34" height="34"/>
	<g class="st4">
		<g>
			<path d="M77.2,27.3h-6.7c-2.5,0-4.5-2-4.5-4.5v-6.7c0-2.5,2-4.5,4.5-4.5h6.7c2.5,0,4.5,2,4.5,4.5v6.7
				C81.7,25.3,79.7,27.3,77.2,27.3z M70.5,13c-1.7,0-3.1,1.4-3.1,3.1v6.7c0,1.7,1.4,3.1,3.1,3.1h6.7c1.7,0,3.1-1.4,3.1-3.1v-6.7
				c0-1.7-1.4-3.1-3.1-3.1H70.5z"/>
		</g>
		<g>
			<path d="M73.9,23.5c-2.2,0-4-1.8-4-4c0-2.2,1.8-4,4-4c2.2,0,4,1.8,4,4C77.9,21.7,76.1,23.5,73.9,23.5z M73.9,16.8
				c-1.5,0-2.7,1.2-2.7,2.7c0,1.5,1.2,2.7,2.7,2.7c1.5,0,2.7-1.2,2.7-2.7C76.5,18,75.3,16.8,73.9,16.8z"/>
		</g>
		<g>
			<circle cx="78.1" cy="15.2" r="1"/>
		</g>
	</g>
	<g class="st4">
		<rect x="149.7" y="-58.1" class="st9" width="57.1" height="57.1"/>
		<g>
			<g>
				<path d="M185.6-12.6h-14.6c-5.3,0-9.7-4.3-9.7-9.7v-14.6c0-5.3,4.3-9.7,9.7-9.7h14.6c5.3,0,9.7,4.3,9.7,9.7v14.6
					C195.2-16.9,190.9-12.6,185.6-12.6z M170.9-43.6c-3.7,0-6.8,3-6.8,6.8v14.6c0,3.7,3,6.8,6.8,6.8h14.6c3.7,0,6.8-3,6.8-6.8v-14.6
					c0-3.7-3-6.8-6.8-6.8H170.9z"/>
			</g>
			<g>
				<path d="M178.3-20.8c-4.8,0-8.7-3.9-8.7-8.7c0-4.8,3.9-8.7,8.7-8.7c4.8,0,8.7,3.9,8.7,8.7C186.9-24.7,183-20.8,178.3-20.8z
					 M178.3-35.3c-3.2,0-5.8,2.6-5.8,5.8c0,3.2,2.6,5.8,5.8,5.8c3.2,0,5.8-2.6,5.8-5.8C184-32.7,181.4-35.3,178.3-35.3z"/>
			</g>
			<g>
				<circle cx="187.3" cy="-38.7" r="2.1"/>
			</g>
		</g>
	</g>
	<rect x="-8.5" y="67.8" class="st10" width="57.1" height="57.1"/>
	<g class="st4">
		<g>
			<path class="st11" d="M27.3,113.4H12.7c-5.3,0-9.7-4.3-9.7-9.7V89.1c0-5.3,4.3-9.7,9.7-9.7h14.6c5.3,0,9.7,4.3,9.7,9.7v14.6
				C37,109,32.7,113.4,27.3,113.4z M12.7,82.3c-3.7,0-6.8,3-6.8,6.8v14.6c0,3.7,3,6.8,6.8,6.8h14.6c3.7,0,6.8-3,6.8-6.8V89.1
				c0-3.7-3-6.8-6.8-6.8H12.7z"/>
		</g>
		<g>
			<path class="st11" d="M20,105.1c-4.8,0-8.7-3.9-8.7-8.7c0-4.8,3.9-8.7,8.7-8.7c4.8,0,8.7,3.9,8.7,8.7
				C28.7,101.2,24.8,105.1,20,105.1z M20,90.6c-3.2,0-5.8,2.6-5.8,5.8c0,3.2,2.6,5.8,5.8,5.8c3.2,0,5.8-2.6,5.8-5.8
				C25.8,93.2,23.2,90.6,20,90.6z"/>
		</g>
		<g>
			<circle class="st11" cx="29.1" cy="87.2" r="2.1"/>
		</g>
	</g>
	<rect x="-8.5" y="-77.8" class="st12" width="57.1" height="57.1"/>
	<g class="st4">
		<g>
			<path class="st6" d="M27.3-32.2H12.7c-5.3,0-9.7-4.3-9.7-9.7v-14.6c0-5.3,4.3-9.7,9.7-9.7h14.6c5.3,0,9.7,4.3,9.7,9.7v14.6
				C37-36.6,32.7-32.2,27.3-32.2z M12.7-63.3c-3.7,0-6.8,3-6.8,6.8v14.6c0,3.7,3,6.8,6.8,6.8h14.6c3.7,0,6.8-3,6.8-6.8v-14.6
				c0-3.7-3-6.8-6.8-6.8H12.7z"/>
		</g>
		<g>
			<path class="st6" d="M20-40.5c-4.8,0-8.7-3.9-8.7-8.7c0-4.8,3.9-8.7,8.7-8.7c4.8,0,8.7,3.9,8.7,8.7C28.7-44.4,24.8-40.5,20-40.5z
				 M20-55c-3.2,0-5.8,2.6-5.8,5.8c0,3.2,2.6,5.8,5.8,5.8c3.2,0,5.8-2.6,5.8-5.8C25.8-52.4,23.2-55,20-55z"/>
		</g>
		<g>
			<circle class="st6" cx="29.1" cy="-58.4" r="2.1"/>
		</g>
	</g>
	<g class="st4">
		<path class="st13" d="M114.9,27.3h-6.7c-2.5,0-4.5-2-4.5-4.5v-6.7c0-2.5,2-4.5,4.5-4.5h6.7c2.5,0,4.5,2,4.5,4.5v6.7
			C119.3,25.3,117.3,27.3,114.9,27.3z M108.1,13c-1.7,0-3.1,1.4-3.1,3.1v6.7c0,1.7,1.4,3.1,3.1,3.1h6.7c1.7,0,3.1-1.4,3.1-3.1v-6.7
			c0-1.7-1.4-3.1-3.1-3.1H108.1z"/>
	</g>
	<g class="st4">
		<path class="st13" d="M111.5,23.5c-2.2,0-4-1.8-4-4c0-2.2,1.8-4,4-4c2.2,0,4,1.8,4,4C115.5,21.7,113.7,23.5,111.5,23.5z
			 M111.5,16.8c-1.5,0-2.7,1.2-2.7,2.7c0,1.5,1.2,2.7,2.7,2.7c1.5,0,2.7-1.2,2.7-2.7C114.2,18,113,16.8,111.5,16.8z"/>
	</g>
	<g class="st4">
		<circle class="st13" cx="115.7" cy="15.2" r="1"/>
	</g>
	<g class="st4">
		<g>
			<path class="st6" d="M77.2-10.2h-6.7c-2.5,0-4.5-2-4.5-4.5v-6.7c0-2.5,2-4.5,4.5-4.5h6.7c2.5,0,4.5,2,4.5,4.5v6.7
				C81.7-12.2,79.7-10.2,77.2-10.2z M70.5-24.5c-1.7,0-3.1,1.4-3.1,3.1v6.7c0,1.7,1.4,3.1,3.1,3.1h6.7c1.7,0,3.1-1.4,3.1-3.1v-6.7
				c0-1.7-1.4-3.1-3.1-3.1H70.5z"/>
		</g>
		<g>
			<path class="st6" d="M73.9-14c-2.2,0-4-1.8-4-4c0-2.2,1.8-4,4-4c2.2,0,4,1.8,4,4C77.9-15.8,76.1-14,73.9-14z M73.9-20.7
				c-1.5,0-2.7,1.2-2.7,2.7c0,1.5,1.2,2.7,2.7,2.7c1.5,0,2.7-1.2,2.7-2.7C76.5-19.5,75.3-20.7,73.9-20.7z"/>
		</g>
		<g>
			<circle class="st6" cx="78.1" cy="-22.2" r="1"/>
		</g>
	</g>
	<g class="st4">
		<g>
			<path class="st11" d="M77.2,67.8h-6.7c-2.5,0-4.5-2-4.5-4.5v-6.7c0-2.5,2-4.5,4.5-4.5h6.7c2.5,0,4.5,2,4.5,4.5v6.7
				C81.7,65.8,79.7,67.8,77.2,67.8z M70.5,53.5c-1.7,0-3.1,1.4-3.1,3.1v6.7c0,1.7,1.4,3.1,3.1,3.1h6.7c1.7,0,3.1-1.4,3.1-3.1v-6.7
				c0-1.7-1.4-3.1-3.1-3.1H70.5z"/>
		</g>
		<g>
			<path class="st11" d="M73.9,64c-2.2,0-4-1.8-4-4c0-2.2,1.8-4,4-4c2.2,0,4,1.8,4,4C77.9,62.2,76.1,64,73.9,64z M73.9,57.3
				c-1.5,0-2.7,1.2-2.7,2.7c0,1.5,1.2,2.7,2.7,2.7c1.5,0,2.7-1.2,2.7-2.7C76.5,58.5,75.3,57.3,73.9,57.3z"/>
		</g>
		<g>
			<circle class="st11" cx="78.1" cy="55.8" r="1"/>
		</g>
	</g>
	<circle class="st14" cx="111.7" cy="-104.7" r="19"/>
	<g class="st4">
		<circle class="st11" cx="118.5" cy="-111.3" r="1.5"/>
		<path class="st11" d="M111.9-110.9c-3.4,0-6.2,2.8-6.2,6.2c0,3.4,2.8,6.2,6.2,6.2c3.4,0,6.2-2.8,6.2-6.2
			C118.1-108.1,115.3-110.9,111.9-110.9z M111.9-100.7c-2.2,0-4-1.8-4-4c0-2.2,1.8-4,4-4s4,1.8,4,4
			C115.9-102.5,114.1-100.7,111.9-100.7z"/>
		<g>
			<path class="st11" d="M116.8-92.1h-10.1c-4.2,0-7.6-3.4-7.6-7.6v-10.1c0-4.2,3.4-7.6,7.6-7.6h10.1c4.2,0,7.6,3.4,7.6,7.6v10.1
				C124.4-95.5,121-92.1,116.8-92.1z M106.8-114.9c-2.9,0-5.2,2.3-5.2,5.2v10.1c0,2.9,2.3,5.2,5.2,5.2h10.1c2.9,0,5.2-2.3,5.2-5.2
				v-10.1c0-2.9-2.3-5.2-5.2-5.2H106.8z"/>
		</g>
	</g>
	<g class="st4">
		<path d="M189,45.3c-2.8,0-5.2,2.3-5.2,5.2s2.3,5.2,5.2,5.2c2.8,0,5.2-2.3,5.2-5.2S191.8,45.3,189,45.3z"/>
		<path d="M196.2,37h-13.5c-3.7,0-6.8,3-6.8,6.8v13.5c0,3.7,3,6.8,6.8,6.8h13.5c3.7,0,6.8-3,6.8-6.8V43.8C203,40,200,37,196.2,37z
			 M189,58.5c-4.4,0-8.1-3.6-8.1-8.1c0-4.4,3.6-8.1,8.1-8.1c4.4,0,8.1,3.6,8.1,8.1C197,54.9,193.4,58.5,189,58.5z M197.5,43.7
			c-1.1,0-1.9-0.9-1.9-1.9c0-1.1,0.9-1.9,1.9-1.9s1.9,0.9,1.9,1.9C199.4,42.9,198.6,43.7,197.5,43.7z"/>
		<path d="M160,21v58h58V21H160z M206,57.2c0,5.4-4.4,9.8-9.8,9.8h-13.3c-5.4,0-9.8-4.4-9.8-9.8V43.8c0-5.4,4.4-9.8,9.8-9.8h13.3
			c5.4,0,9.8,4.4,9.8,9.8V57.2z"/>
	</g>
	<g class="st4">
		<path class="st6" d="M20,15.3c-2.8,0-5.2,2.3-5.2,5.2s2.3,5.2,5.2,5.2c2.8,0,5.2-2.3,5.2-5.2S22.8,15.3,20,15.3z"/>
		<path class="st6" d="M27.2,7H13.8C10,7,7,10,7,13.8v13.5C7,31,10,34,13.8,34h13.5c3.7,0,6.8-3,6.8-6.8V13.8C34,10,31,7,27.2,7z
			 M20,28.5c-4.4,0-8.1-3.6-8.1-8.1c0-4.4,3.6-8.1,8.1-8.1c4.4,0,8.1,3.6,8.1,8.1C28,24.9,24.4,28.5,20,28.5z M28.5,13.7
			c-1.1,0-1.9-0.9-1.9-1.9c0-1.1,0.9-1.9,1.9-1.9s1.9,0.9,1.9,1.9C30.4,12.9,29.6,13.7,28.5,13.7z"/>
		<path class="st6" d="M-9-9v58h58V-9H-9z M37,27.2c0,5.4-4.4,9.8-9.8,9.8H13.8C8.4,37,4,32.6,4,27.2V13.8C4,8.4,8.4,4,13.8,4h13.3
			c5.4,0,9.8,4.4,9.8,9.8V27.2z"/>
	</g>
	<g class="st4">
		<path class="st11" d="M147,110.3c-2.8,0-5.2,2.3-5.2,5.2s2.3,5.2,5.2,5.2c2.8,0,5.2-2.3,5.2-5.2S149.8,110.3,147,110.3z"/>
		<path class="st11" d="M154.2,102h-13.5c-3.7,0-6.8,3-6.8,6.8v13.5c0,3.7,3,6.8,6.8,6.8h13.5c3.7,0,6.8-3,6.8-6.8v-13.5
			C161,105,158,102,154.2,102z M147,123.5c-4.4,0-8.1-3.6-8.1-8.1c0-4.4,3.6-8.1,8.1-8.1c4.4,0,8.1,3.6,8.1,8.1
			C155,119.9,151.4,123.5,147,123.5z M155.5,108.7c-1.1,0-1.9-0.9-1.9-1.9c0-1.1,0.9-1.9,1.9-1.9s1.9,0.9,1.9,1.9
			C157.4,107.9,156.6,108.7,155.5,108.7z"/>
		<path class="st11" d="M118,86v58h58V86H118z M164,122.2c0,5.4-4.4,9.8-9.8,9.8h-13.3c-5.4,0-9.8-4.4-9.8-9.8v-13.3
			c0-5.4,4.4-9.8,9.8-9.8h13.3c5.4,0,9.8,4.4,9.8,9.8V122.2z"/>
	</g>
</g>
<g id="Layer_5" class="st0">
	<rect x="-57" y="3" class="st3" width="34" height="34"/>
	<g class="st4">
		<rect x="-48.9" y="13.9" class="st15" width="17.6" height="12.1"/>
		<polyline class="st16" points="-31.2,14 -39.9,22.6 -48.8,13.8 		"/>
		<line class="st15" x1="-48.8" y1="26.1" x2="-42.5" y2="19.8"/>
		<line class="st15" x1="-31.2" y1="26.1" x2="-37.4" y2="19.8"/>
	</g>
	<g class="st4">
		<polygon points="72.2,20 77,24.8 77,15.2 		"/>
		<polygon points="76.6,26 71.7,20.9 69.4,23 68.7,23 66.3,20.9 61.4,26 		"/>
		<polygon points="69.1,21.5 76.6,14 61.5,14 		"/>
		<path d="M52,3v34h34V3H52z M78,27H60V13h18V27z"/>
		<polygon points="66,19.9 61,15 61,24.9 		"/>
	</g>
	<rect x="3" y="-49" class="st8" width="34" height="34"/>
	<g class="st4">
		<rect x="11.1" y="-38.1" class="st5" width="17.6" height="12.1"/>
		<polyline class="st5" points="28.8,-38 20.1,-29.4 11.2,-38.2 		"/>
		<line class="st5" x1="11.2" y1="-25.9" x2="17.5" y2="-32.2"/>
		<line class="st5" x1="28.8" y1="-25.9" x2="22.6" y2="-32.2"/>
	</g>
	<g class="st4">
		<polygon class="st6" points="23.2,20 28,24.8 28,15.2 		"/>
		<polygon class="st6" points="27.6,26 22.7,20.9 20.4,23 19.7,23 17.3,20.9 12.4,26 		"/>
		<polygon class="st6" points="20.1,21.5 27.6,14 12.5,14 		"/>
		<path class="st6" d="M3,3v34h34V3H3z M29,27H11V13h18V27z"/>
		<polygon class="st6" points="17,19.9 12,15 12,24.9 		"/>
	</g>
	<g class="st4">
		<rect x="3" y="50" class="st17" width="34" height="34"/>
		<g>
			<rect x="11.1" y="60.9" class="st17" width="17.6" height="12.1"/>
			<polyline class="st18" points="28.8,61 20.1,69.6 11.2,60.8 			"/>
			<line class="st17" x1="11.2" y1="73.1" x2="17.5" y2="66.8"/>
			<line class="st17" x1="28.8" y1="73.1" x2="22.6" y2="66.8"/>
		</g>
	</g>
	<g class="st4">
		<polygon class="st11" points="71.2,63 76,67.8 76,58.2 		"/>
		<polygon class="st11" points="75.6,69 70.7,63.9 68.4,66 67.7,66 65.3,63.9 60.4,69 		"/>
		<polygon class="st11" points="68.1,64.5 75.6,57 60.5,57 		"/>
		<path class="st11" d="M51,46v34h34V46H51z M77,70H59V56h18V70z"/>
		<polygon class="st11" points="65,62.9 60,58 60,67.9 		"/>
	</g>
</g>
<g id="Layer_6">
	<g>
		<circle cx="20" cy="11" r="1.5"/>
		<circle cx="20" cy="29" r="1.5"/>
		<circle cx="29" cy="20" r="1.5"/>
		<circle cx="11" cy="20" r="1.5"/>
		<circle cx="26.3" cy="26.4" r="1.5"/>
		<circle cx="13.7" cy="13.6" r="1.5"/>
		<circle cx="26.4" cy="13.7" r="1.5"/>
		<circle cx="13.6" cy="26.3" r="1.5"/>
	</g>
</g>
</svg>
