<?xml version="1.0" encoding="utf-8"?>
<!-- Generator: Adobe Illustrator 19.1.0, SVG Export Plug-In . SVG Version: 6.00 Build 0)  -->
<svg version="1.1" xmlns="http://www.w3.org/2000/svg" xmlns:xlink="http://www.w3.org/1999/xlink" x="0px" y="0px"
	 viewBox="-999.5 -187.1 496 449.9" style="enable-background:new -999.5 -187.1 496 449.9;" xml:space="preserve">
<style type="text/css">
	.st0{display:none;}
	.st1{fill:#3924FB;}
</style>
<g id="Layer_2" class="st0">
</g>
<g id="Layer_1" class="st0">
</g>
<g id="Layer_3">
	<g>
		<polygon class="st1" points="-863.5,222.8 -543.5,222.8 -543.5,-49.2 -647.5,-49.2 -647.5,126.8 -663.5,150.8 -679.5,126.8 
			-679.5,-49.2 -863.5,-49.2 		"/>
		<path d="M-911.5,126.8c22.1,0,40-17.9,40-40s-17.9-40-40-40s-40,17.9-40,40S-933.5,126.8-911.5,126.8z M-911.5,62.8
			c13.2,0,24,10.8,24,24s-10.8,24-24,24s-24-10.8-24-24S-924.7,62.8-911.5,62.8z"/>
		<circle cx="-911.5" cy="86.8" r="8"/>
		<rect x="-935.5" y="14.8" width="48" height="16"/>
		<rect x="-935.5" y="-17.2" width="48" height="16"/>
		<rect x="-935.5" y="174.8" width="48" height="16"/>
		<rect x="-935.5" y="142.8" width="48" height="16"/>
		<path d="M-983.5-29.9v-69.2c0-4.4,3.6-8,8-8h224c13.2,0,24-10.8,24-24v-56h-16v56c0,4.4-3.6,8-8,8h-224c-13.2,0-24,10.8-24,24
			v69.2H-983.5z"/>
		<path d="M-543.5-89.2h-96v-48c0-13.2-10.8-24-24-24s-24,10.8-24,24v48h-240c-22.1,0-40,17.9-40,40v128h-8c-4.4,0-8-3.6-8-8v-104
			h-16v104c0,13.2,10.8,24,24,24h8v128c0,22.1,17.9,40,40,40h384c22.1,0,40-17.9,40-40v-272C-503.5-71.3-521.4-89.2-543.5-89.2z
			 M-671.5-137.2c0-4.4,3.6-8,8-8c4.4,0,8,3.6,8,8v136h-16V-137.2z M-671.5,14.8h16v96h-16V14.8z M-671.5,126.8h16v5.6l-8,12l-8-12
			V126.8z M-951.5,86.8v-120h80v120v120h-80V86.8z M-519.5,222.8c0,13.2-10.8,24-24,24h-384c-13.2,0-24-10.8-24-24h96v-256v-8v-8
			h-96c0-13.2,10.8-24,24-24h240v210.4l16,24v21.6h16v-21.6l16-24V-73.2h96c13.2,0,24,10.8,24,24V222.8z"/>
	</g>
</g>
</svg>
