<?xml version="1.0" encoding="utf-8"?>
<!-- Generator: Adobe Illustrator 19.1.0, SVG Export Plug-In . SVG Version: 6.00 Build 0)  -->
<svg version="1.1" xmlns="http://www.w3.org/2000/svg" xmlns:xlink="http://www.w3.org/1999/xlink" x="0px" y="0px"
	 viewBox="-139.8 1440.1 496 496" style="enable-background:new -139.8 1440.1 496 496;" xml:space="preserve">
<style type="text/css">
	.st0{display:none;}
	.st1{fill:#3924FB;}
</style>
<g id="Layer_2" class="st0">
</g>
<g id="Layer_1" class="st0">
</g>
<g id="Layer_3">
	<g>
		<g>
			<path class="st1" d="M84.2,1632.1h-160v-23.9c0-17.8,11.9-33.6,29-38.5l27-7.7v-2.1c-10-7.5-16-19.3-16-31.8v-16
				c0-11.2,4.7-21.9,13-29.5c8.2-7.5,19.4-11.3,30.6-10.4c20.4,1.8,36.4,20,36.4,41.5v14.3c0,12.5-6,24.3-16,31.8v2.1l27,7.7
				c17.1,4.9,29,20.7,29,38.5V1632.1z"/>
			<path class="st1" d="M292.2,1760.1h-160v-23.9c0-17.8,11.9-33.6,29-38.5l27-7.7v-2.1c-10-7.5-16-19.3-16-31.8v-16
				c0-11.2,4.7-21.9,13-29.5c8.2-7.6,19.4-11.3,30.6-10.4c20.4,1.8,36.4,20,36.4,41.5v14.3c0,12.5-6,24.3-16,31.8v2.1l27,7.7
				c17.1,4.9,29,20.7,29,38.5V1760.1z"/>
			<path class="st1" d="M68.2,1792.1h-160v-80h53.9l66.1-32v32h40V1792.1z"/>
			<path class="st1" d="M188.2,1552.1v-32h-40v-80h160v80h-53.9L188.2,1552.1z"/>
		</g>
		<path d="M324.2,1568.9v-0.8h-208v-128h-224v128.8c-18.2,3.7-32,19.9-32,39.2v240c0,22.1,17.9,40,40,40h104v32h-32v16h272v-16h-32
			v-32h104c22.1,0,40-17.9,40-40v-240C356.2,1588.8,342.4,1572.6,324.2,1568.9z M300.2,1584.1h8v192h-192v-192H300.2z M-91.8,1456.1
			h192v192h-192V1456.1z M-107.8,1585.6v78.5h208v128h224v-206.5c9.3,3.3,16,12.1,16,22.5v200h-464v-200
			C-123.8,1597.7-117.1,1588.9-107.8,1585.6z M196.2,1920.1h-176v-32h176V1920.1z M316.2,1872.1h-416c-13.2,0-24-10.8-24-24v-24h464
			v24C340.2,1861.3,329.4,1872.1,316.2,1872.1z"/>
		<path d="M-91.8,1840.1h16v16h-16V1840.1z"/>
		<path d="M-59.8,1840.1h16v16h-16V1840.1z"/>
		<path d="M-27.8,1840.1h16v16h-16V1840.1z"/>
		<path d="M-59.8,1744.1h96v16h-96V1744.1z"/>
		<path d="M180.2,1472.1h96v16h-96V1472.1z"/>
	</g>
</g>
</svg>
