<?xml version="1.0" encoding="utf-8"?>
<!-- Generator: Adobe Illustrator 19.1.0, SVG Export Plug-In . SVG Version: 6.00 Build 0)  -->
<svg version="1.1" xmlns="http://www.w3.org/2000/svg" xmlns:xlink="http://www.w3.org/1999/xlink" x="0px" y="0px"
	 viewBox="-1592.1 1936.7 496 466.7" style="enable-background:new -1592.1 1936.7 496 466.7;" xml:space="preserve">
<style type="text/css">
	.st0{display:none;}
	.st1{fill:#3924FB;}
</style>
<g id="Layer_2" class="st0">
</g>
<g id="Layer_1" class="st0">
</g>
<g id="Layer_3">
	<g>
		<circle class="st1" cx="-1424.1" cy="2200.7" r="96"/>
		<path class="st1" d="M-1136.1,2176.7h-128c-4.4,0-8-3.6-8-8v-128c0-4.4,3.6-8,8-8h128c4.4,0,8,3.6,8,8v128
			C-1128.1,2173.1-1131.7,2176.7-1136.1,2176.7z"/>
		<g>
			<path d="M-1424.1,2064.7c-75,0-136,61-136,136c0,75,61,136,136,136c75,0,136-61,136-136
				C-1288.1,2125.7-1349.1,2064.7-1424.1,2064.7z M-1544.1,2200.7c0-63.5,49.6-115.4,112-119.6v113.8l-108,36
				C-1542.6,2221.2-1544.1,2211.1-1544.1,2200.7z M-1424.1,2320.7c-50.1,0-93.1-30.9-111-74.6l109.3-36.4l88.4,73.7
				C-1359.2,2306.3-1390,2320.7-1424.1,2320.7z M-1327.1,2271.1l-89-74.1v-115.8c62.4,4.1,112,56.1,112,119.6
				C-1304.1,2227-1312.7,2251.3-1327.1,2271.1z"/>
			<rect x="-1240.1" y="2064.7" width="80" height="16"/>
			<rect x="-1240.1" y="2128.7" width="80" height="16"/>
			<rect x="-1240.1" y="2096.7" width="32" height="16"/>
			<rect x="-1192.1" y="2096.7" width="32" height="16"/>
			<rect x="-1272.1" y="2216.7" width="112" height="16"/>
			<rect x="-1272.1" y="2248.7" width="112" height="16"/>
			<rect x="-1272.1" y="2280.7" width="112" height="16"/>
			<rect x="-1272.1" y="2312.7" width="112" height="16"/>
			<rect x="-1272.1" y="2344.7" width="112" height="16"/>
			<rect x="-1144.1" y="2216.7" width="16" height="16"/>
			<rect x="-1144.1" y="2248.7" width="16" height="16"/>
			<rect x="-1144.1" y="2280.7" width="16" height="16"/>
			<rect x="-1144.1" y="2312.7" width="16" height="16"/>
			<rect x="-1144.1" y="2344.7" width="16" height="16"/>
			<rect x="-1560.1" y="1968.7" width="16" height="16"/>
			<rect x="-1528.1" y="1968.7" width="16" height="16"/>
			<rect x="-1496.1" y="1968.7" width="16" height="16"/>
			<rect x="-1400.1" y="2160.7" width="16" height="16"/>
			<rect x="-1368.1" y="2160.7" width="16" height="16"/>
			<rect x="-1336.1" y="2160.7" width="16" height="16"/>
			<path d="M-1592.1,1936.7v434v16.3v16.3h496V2387v-16.3v-434H-1592.1z M-1576.1,1952.7h464v48h-464V1952.7z M-1112.1,2387v0.3
				h-464v-0.3v-16.3v-354h464v354V2387z"/>
		</g>
	</g>
</g>
</svg>
