<?xml version="1.0" encoding="utf-8"?>
<!-- Generator: Adobe Illustrator 19.1.0, SVG Export Plug-In . SVG Version: 6.00 Build 0)  -->
<svg version="1.1" xmlns="http://www.w3.org/2000/svg" xmlns:xlink="http://www.w3.org/1999/xlink" x="0px" y="0px"
	 viewBox="898 207 496 496" style="enable-background:new 898 207 496 496;" xml:space="preserve">
<style type="text/css">
	.st0{display:none;}
	.st1{fill:#3924FB;}
</style>
<g id="Layer_2" class="st0">
</g>
<g id="Layer_1" class="st0">
</g>
<g id="Layer_3">
	<g>
		<path class="st1" d="M1326.2,383c-6,5.7-12.8,10.5-20.3,14.3V415h-4c6.6,0,12,5.4,12,12c0,6.6-5.4,12-12,12c6.6,0,12,5.4,12,12
			c0,6.6-5.4,12-12,12h-72c-6.6,0-12-5.4-12-12c0-6.6,5.4-12,12-12c-6.6,0-12-5.4-12-12c0-6.6,5.4-12,12-12h-4v-17.7
			c-7.4-3.8-14.2-8.7-20.3-14.3h-139.4v40h87.6v128h-87.6v38.9l86.1,81.1H1370c13.2,0,24-10.8,24-24V383H1326.2z"/>
		<circle cx="962" cy="359" r="8"/>
		<circle cx="994" cy="359" r="8"/>
		<circle cx="1026" cy="359" r="8"/>
		<path d="M1045.2,559H1162V415H954v58.2l-30.9-29c-7.8-7.3-14.4-5.6-16.9-4.6c-2.5,1.1-8.3,4.7-8.3,15.4v224c0,13.2,10.8,24,24,24
			h240c10.5,0,14.1-5.2,15.3-8.3c1.2-3.1,2.2-9.3-5.5-16.5L1045.2,559z M970,431h176v112h-117.8L970,488.2V431z M922,687
			c-4.4,0-8-3.6-8-8v-8h16v-16h-16v-16h16v-16h-16v-16h16v-16h-16v-16h16v-16h-16v-16h16v-16h-16v-16h16v-16h-16v-37.5L1157.8,687
			H922z"/>
		<path d="M954,550.1V647h103L954,550.1z M970,587.1l46.6,43.9H970V587.1z"/>
		<path d="M1394,255v-48h-48v16h-160v-16h-48v48h48v-16h27c-25.9,17.2-43,46.6-43,80H946c-13.2,0-24,10.8-24,24v56h8h283.4
			c1.5,1,3,2.1,4.6,3.1v9c-4.8,3.7-8,9.4-8,15.9c0,4.5,1.6,8.6,4.1,12c-2.5,3.3-4.1,7.5-4.1,12c0,11,9,20,20,20h72c11,0,20-9,20-20
			c0-4.5-1.6-8.6-4.1-12c2.5-3.4,4.1-7.5,4.1-12c0-6.5-3.2-12.2-8-15.9v-9c1.6-0.9,3-2.1,4.6-3.1h67.4h8v-56c0-13.2-10.8-24-24-24
			h-8c0-33.4-17.1-62.8-43-80h27v16L1394,255L1394,255z M1154,239v-16h16v16H1154z M938,343c0-4.4,3.6-8,8-8h225.5
			c3,18.1,11.1,34.6,23.2,48H938V343z M1266,335c-8.8,0-16-7.2-16-16s7.2-16,16-16c8.8,0,16,7.2,16,16S1274.8,335,1266,335z
			 M1302,423c2.2,0,4,1.8,4,4s-1.8,4-4,4h-72c-2.2,0-4-1.8-4-4s1.8-4,4-4H1302z M1302,455h-72c-2.2,0-4-1.8-4-4s1.8-4,4-4h72
			c2.2,0,4,1.8,4,4S1304.2,455,1302,455z M1370,335c4.4,0,8,3.6,8,8v40h-40.7c12.1-13.4,20.2-29.9,23.2-48H1370z M1346,319
			c0,30.1-16.7,57.4-43.6,71.2l-4.4,2.2V407h-24v-57.1c13.8-3.6,24-16,24-30.9c0-17.6-14.4-32-32-32c-17.6,0-32,14.4-32,32
			c0,14.9,10.2,27.3,24,30.9V407h-24v-14.6l-4.4-2.2c-26.9-13.8-43.6-41.1-43.6-71.2c0-44.1,35.9-80,80-80
			C1310.1,239,1346,274.9,1346,319z M1378,223v16h-16v-16H1378z"/>
		<rect x="1178" y="495" width="184" height="16"/>
		<rect x="1178" y="527" width="184" height="16"/>
		<rect x="1178" y="559" width="184" height="16"/>
		<rect x="1178" y="591" width="184" height="16"/>
	</g>
</g>
</svg>
